<svg width="210" height="48" xmlns="http://www.w3.org/2000/svg">

 <g>
  <title>background</title>
  <rect fill="#e5e5e5" id="canvas_background" height="50" width="212" y="-1" x="-1"/>
 </g>
 <g>
  <title>Layer 1</title>
  <path id="svg_1" d="m36.9133,26.523001c1.804699,-0.697001 3.4856,-1.673601 4.288902,-2.4781c1.092098,-1.0937 1.507599,-2.250601 2.146,-3.672901c-0.017601,-0.7966 0.364197,-1.565599 1.0308,-2.0187c0.019798,-0.0336 0.039997,-0.067301 0.060299,-0.1012c0,0 -0.004501,0.024099 -0.011501,0.068899c0.105701,-0.0681 0.2183,-0.1283 0.337299,-0.179699c1.182301,-0.5103 2.5476,0.0506 3.0494,1.252899c0.5019,1.2022 -0.049698,2.5905 -1.231998,3.100801c-0.435699,0.188099 -0.896301,0.2307 -1.329399,0.1493c-3.060101,0.2481 -1.527702,0.3722 -4.931,3.615599c-2.138901,2.038301 -2.2985,4.433201 -2.452503,6.227402c0.315601,2.623398 -1.089199,5.249001 -3.601097,6.333199c-3.040201,1.312302 -6.550901,-0.1301 -7.841402,-3.2215c-0.551899,-1.3223 -0.608299,-2.732098 -0.2542,-4.015299c-0.078798,-1.444401 0.4867,-3.7705 -0.358799,-5.7048c-0.9606,-2.197901 -1.8936,-4.5679 -3.5548,-6.932701c-0.8853,-1.260399 -2.336901,-2.664799 -4.354801,-4.213099c-2.645099,-0.6279 -4.615299,-3.0409 -4.615299,-5.92195c0,-3.358459 2.677401,-6.08103 5.980101,-6.08103c1.438599,0 2.7586,0.51657 3.7903,1.37726c2.5977,0.8037 6.575199,0.61971 8.269699,-0.06128c1.425499,-0.57292 2.252602,-1.47271 3.3867,-2.52832c0.289902,-0.7402 0.936802,-1.29642 1.724499,-1.44867c0.0312,-0.02301 0.062702,-0.04604 0.094501,-0.06911c0,0 -0.013401,0.02031 -0.037102,0.05878c0.123501,-0.02062 0.250301,-0.03134 0.379501,-0.03134c1.284401,0 2.3256,1.05878 2.3256,2.36485c0,1.30606 -1.041199,2.36484 -2.3256,2.36484c-0.473301,0 -0.913601,-0.1438 -1.280998,-0.3908c-2.912201,-0.98742 -1.549301,-0.26433 -5.928301,1.36895c-1.357901,0.50649 -2.3057,1.28433 -3.0172,2.13349c-2.268,3.62683 -3.067301,6.41843 -2.398199,8.37473c1.041199,3.0438 2.990099,5.7432 4.651199,8.108101c1.525801,2.1721 4.453098,2.6341 8.009399,2.1714zm-32.68222,-5.814001c-2.4494,-0.760599 -4.23108,-3.0772 -4.23108,-5.816799c0,-3.3585 2.67739,-6.081051 5.98012,-6.081051c3.30274,0 5.98008,2.72255 5.98008,6.081051c0,1.2829 -0.3906,2.473 -1.0576,3.4541c-0.1413,1.2757 0.1005,2.827 0.7254,4.6539c1.0412,3.0438 2.9901,5.7432 4.651199,8.108099c1.6612,2.364799 2.4167,3.6861 4.9835,4.818001c0,0 -0.022699,0.016499 -0.065699,0.0476c2.6961,0.5895 4.7169,3.027302 4.7169,5.945099c0,3.358402 -2.677401,6.081001 -5.9802,6.081001c-3.3027,0 -5.980101,-2.722599 -5.980101,-6.081001c0,-0.932198 0.2063,-1.815498 0.575,-2.605099c0.5225,-2.6003 -0.4775,-4.706799 -1.3392,-6.678299c-0.9606,-2.197901 -1.8936,-4.567902 -3.55476,-6.932701c-1.031919,-1.469099 -2.83311,-3.133699 -5.40356,-4.9939z"/>
  <path id="svg_2" d="m62.913601,19.66l-7.860001,-13.07999l5.279999,0l5.009998,8.45999l4.980003,-8.45999l5.25,0l-7.950005,13.199991l0,8.219999l-4.709995,0l0,-8.34zm18.240002,-2.280001c0,0.900002 0.104996,1.775002 0.314995,2.625c0.209999,0.85 0.545006,1.615002 1.005005,2.295c0.459999,0.68 1.059998,1.225 1.799995,1.635c0.740005,0.41 1.639999,0.615 2.700005,0.615c1.059998,0 1.959999,-0.205 2.699997,-0.615c0.739998,-0.41 1.340004,-0.955 1.800003,-1.635c0.459999,-0.679998 0.794998,-1.445 1.004997,-2.295c0.209999,-0.849998 0.315002,-1.724998 0.315002,-2.625c0,-0.939999 -0.105003,-1.849999 -0.315002,-2.73c-0.209999,-0.879999 -0.544998,-1.665 -1.004997,-2.355c-0.459999,-0.690001 -1.060005,-1.24 -1.800003,-1.65c-0.739998,-0.410001 -1.639999,-0.615001 -2.699997,-0.615001c-1.060005,0 -1.959999,0.205 -2.700005,0.615001c-0.739998,0.41 -1.339996,0.959999 -1.799995,1.65c-0.459999,0.69 -0.795006,1.475 -1.005005,2.355c-0.209999,0.88 -0.314995,1.790001 -0.314995,2.73zm-4.709999,0c0,-1.599999 0.239998,-3.084999 0.719994,-4.454999c0.480003,-1.37 1.170006,-2.565001 2.07,-3.584991c0.900002,-1.02001 2.005005,-1.82 3.315002,-2.4c1.309998,-0.58001 2.785004,-0.87 4.425003,-0.87c1.659996,0 3.139999,0.28999 4.439995,0.87c1.300003,0.58 2.400002,1.37999 3.300003,2.4c0.900002,1.01999 1.589996,2.214991 2.07,3.584991c0.480003,1.37 0.720001,2.855 0.720001,4.454999c0,1.560001 -0.239998,3.015001 -0.720001,4.365002c-0.480003,1.349998 -1.169998,2.525 -2.07,3.525c-0.900002,1 -2,1.785 -3.300003,2.355c-1.299995,0.57 -2.779999,0.855 -4.439995,0.855c-1.639999,0 -3.115005,-0.285 -4.425003,-0.855c-1.309998,-0.57 -2.415001,-1.355 -3.315002,-2.355c-0.899994,-1 -1.589996,-2.175001 -2.07,-3.525c-0.479996,-1.35 -0.719994,-2.805 -0.719994,-4.365002zm42.450394,2.52c0,2.9 -0.809998,5.055 -2.43,6.465c-1.619995,1.41 -3.860001,2.115 -6.719994,2.115c-2.900002,0 -5.145004,-0.699999 -6.735001,-2.1c-1.590004,-1.4 -2.385002,-3.559999 -2.385002,-6.48l0,-13.31999l4.709999,0l0,13.31999c0,0.58 0.050003,1.15 0.150002,1.710001c0.099998,0.559999 0.309998,1.055 0.629997,1.484999c0.32,0.43 0.764999,0.780001 1.334999,1.050001c0.57,0.27 1.334999,0.404999 2.295006,0.404999c1.68,0 2.839996,-0.375 3.479996,-1.125c0.639999,-0.75 0.959999,-1.924999 0.959999,-3.525l0,-13.31999l4.709999,0l0,13.31999z"/>
  <path id="svg_3" d="m126.898003,26.860001l0.059998,0l7.409996,-20.279981l1.320007,0l-8.010002,21.41998l-1.529999,0l-7.980003,-21.41998l1.379997,0l7.350006,20.279981zm10.260002,-20.279981l14.399994,0l0,1.14l-13.080002,0l0,8.579979l12.300003,0l0,1.140001l-12.300003,0l0,9.42l13.229996,0l0,1.139999l-14.549988,0l0,-21.41998zm16.799988,0l8.940002,0c0.940002,0 1.820007,0.095 2.639999,0.285c0.820007,0.19 1.540009,0.5 2.160004,0.93c0.619995,0.43 1.104996,0.995 1.455002,1.695c0.350006,0.69998 0.524994,1.569981 0.524994,2.609981c0,1.44 -0.404999,2.655 -1.214996,3.645c-0.809998,0.990001 -1.934998,1.605 -3.375,1.845l0,0.059999c0.979996,0.120001 1.755005,0.380001 2.324997,0.780001c0.570007,0.4 0.99501,0.889999 1.275009,1.469999c0.279999,0.58 0.459991,1.220001 0.539993,1.92c0.080002,0.700001 0.12001,1.4 0.12001,2.1l0,1.23c0,0.4 0.019989,0.775 0.059998,1.125c0.039993,0.35 0.104996,0.675001 0.194992,0.975c0.089996,0.299999 0.214996,0.549999 0.375,0.75l-1.470001,0c-0.279999,-0.5 -0.434998,-1.084999 -0.464996,-1.754999c-0.029999,-0.67 -0.044998,-1.365002 -0.044998,-2.085001c0,-0.719999 -0.029999,-1.434999 -0.089996,-2.145c-0.059998,-0.709999 -0.25,-1.344999 -0.570007,-1.904999c-0.319992,-0.560001 -0.824997,-1.01 -1.514999,-1.35c-0.690002,-0.34 -1.664993,-0.51 -2.925003,-0.51l-7.619995,0l0,9.75l-1.320007,0l0,-21.41998zm8.940002,10.529981c0.779999,0 1.505005,-0.095001 2.175003,-0.285c0.669998,-0.190001 1.244995,-0.485001 1.725006,-0.885001c0.479996,-0.4 0.860001,-0.91 1.139999,-1.53c0.279999,-0.62 0.419998,-1.36 0.419998,-2.22c0,-0.799999 -0.150009,-1.485 -0.449997,-2.054999c-0.300003,-0.569981 -0.700012,-1.03498 -1.200012,-1.39498c-0.5,-0.36 -1.079987,-0.62 -1.73999,-0.78c-0.660004,-0.16 -1.350006,-0.24 -2.070007,-0.24l-7.619995,0l0,9.389981l7.619995,0zm9.960007,-10.529981l1.319992,0l0,21.41998l-1.319992,0l0,-21.41998zm5.099991,0l13.440002,0l0,1.14l-12.119995,0l0,8.579979l10.919998,0l0,1.140001l-10.919998,0l0,10.559999l-1.320007,0l0,-21.41998zm29.910004,0l1.470001,0l-8.610001,12.449981l0,8.969999l-1.319992,0l0,-8.969999l-8.550003,-12.449981l1.5,0l7.740005,11.33998l7.769989,-11.33998z"/>
 </g>
</svg>