<?xml version="1.0" encoding="utf-8"?>
<!-- Generator: Adobe Illustrator 23.0.2, SVG Export Plug-In . SVG Version: 6.00 Build 0)  -->
<svg version="1.1" id="Layer_1" xmlns="http://www.w3.org/2000/svg" xmlns:xlink="http://www.w3.org/1999/xlink" x="0px" y="0px"
	 viewBox="0 0 1635.1 591.1" style="enable-background:new 0 0 1635.1 591.1;" xml:space="preserve">
<style type="text/css">
	.st0{fill:#FFFFFF;}
	.st1{fill:#FCD206;}
	.st2{fill:#3FAF5C;}
</style>
<g>
	<g>
		<path class="st0" d="M836.2,187.2v91.4h-33.4v-91.4h-33.7v-29.1h100.8v29.1H836.2z"/>
		<path class="st0" d="M950.8,278.6l-6.5-21.2h-36.1l-6.5,21.2h-35.8l43.7-120.4h33.7l43.7,120.4H950.8z M933.9,223
			c-1-3.9-2-7.3-2.8-10.2c-0.8-2.9-1.5-5.4-2.2-7.7c-0.6-2.3-1.2-4.4-1.6-6.3c-0.5-1.9-0.9-3.9-1.2-5.9c-0.3,2.1-0.7,4.1-1.2,6
			c-0.5,2-1,4.1-1.6,6.4c-0.6,2.3-1.4,4.9-2.2,7.7c-0.8,2.9-1.7,6.2-2.8,10l-2.2,7.9h20L933.9,223z"/>
		<path class="st0" d="M1102.9,198.1c0,7.7-1.2,14.2-3.6,19.4c-2.4,5.3-5.8,9.6-10.2,12.8c-4.4,3.3-9.5,5.6-15.6,7.1
			c-6,1.4-12.6,2.2-19.9,2.2H1037v39.1h-32.9V158.2h51.8c7,0,13.4,0.7,19.2,2.2c5.8,1.4,10.8,3.7,14.9,6.9c4.1,3.2,7.3,7.3,9.5,12.4
			C1101.8,184.7,1102.9,190.9,1102.9,198.1z M1069.7,198.6c0-4-1.1-7.2-3.3-9.6c-2.2-2.4-6-3.6-11.4-3.6H1037v27h17.6
			c5.5,0,9.4-1.1,11.7-3.4C1068.6,206.6,1069.7,203.2,1069.7,198.6z"/>
		<path class="st0" d="M1230.8,278.6H1200l-5.5-26.2c-1-4.6-2-9.4-2.9-14.4c-0.9-5-1.8-9.7-2.5-14.3c-0.7-4.5-1.4-8.7-1.9-12.4
			c-0.5-3.7-0.8-6.7-0.9-8.9c-0.2,2.2-0.6,5.1-1,8.9c-0.5,3.7-1.1,7.9-1.8,12.4c-0.7,4.5-1.6,9.3-2.5,14.3c-0.9,5-1.9,9.8-2.9,14.4
			l-5.5,26.2H1142l-28.7-120.4h34.4l3.3,20.1c0.7,4.2,1.4,8.7,2.2,13.3c0.7,4.6,1.4,9.3,2.1,13.9c0.6,4.6,1.2,9,1.7,13.3
			c0.5,4.3,0.9,8.2,1.3,11.8c0.3-3.6,0.8-7.5,1.5-11.7c0.6-4.2,1.3-8.6,2.2-13.2c0.8-4.5,1.7-9.1,2.6-13.8c0.9-4.6,1.8-9.1,2.8-13.5
			l4.1-20.3h30.6l4.1,20.3c0.9,4.4,1.8,8.9,2.8,13.5c0.9,4.6,1.8,9.2,2.6,13.8c0.8,4.5,1.5,8.9,2.2,13.2c0.6,4.2,1.1,8.1,1.5,11.7
			c0.3-3.6,0.8-7.5,1.3-11.8c0.5-4.3,1.1-8.7,1.7-13.3c0.6-4.6,1.3-9.2,2.1-13.9c0.7-4.6,1.5-9.1,2.2-13.3l3.3-20.1h34.1
			L1230.8,278.6z"/>
		<path class="st0" d="M1344.3,278.6l-6.5-21.2h-36.1l-6.5,21.2h-35.8l43.7-120.4h33.7l43.7,120.4H1344.3z M1327.5,223
			c-1-3.9-2-7.3-2.8-10.2c-0.8-2.9-1.5-5.4-2.2-7.7c-0.6-2.3-1.2-4.4-1.6-6.3c-0.5-1.9-0.9-3.9-1.2-5.9c-0.3,2.1-0.7,4.1-1.2,6
			c-0.5,2-1,4.1-1.6,6.4c-0.6,2.3-1.4,4.9-2.2,7.7c-0.8,2.9-1.7,6.2-2.8,10l-2.2,7.9h20L1327.5,223z"/>
		<path class="st0" d="M1446.5,233.7v44.9h-33.7v-44.4l-44.6-76.1h38.5l9.3,18.2c3.2,6.3,6,12.2,8.4,17.6c2.4,5.5,4.2,10,5.3,13.5
			c1.1-3.6,2.9-8.1,5.3-13.5c2.4-5.4,5.2-11.3,8.4-17.6l9.3-18.2h38.2L1446.5,233.7z"/>
	</g>
	<g>
		<path class="st1" d="M805,368.3v-46.2H818v35h20.4v11.1H805z"/>
		<path class="st1" d="M897.8,345.2c0,3.8-0.5,7.2-1.6,10.2c-1.1,3-2.5,5.5-4.4,7.5c-1.9,2-4.2,3.6-6.8,4.6
			c-2.6,1.1-5.5,1.6-8.6,1.6c-3.1,0-6-0.5-8.6-1.5c-2.6-1-4.9-2.6-6.8-4.6c-1.9-2-3.4-4.5-4.4-7.5c-1-3-1.5-6.4-1.5-10.2
			c0-3.8,0.5-7.2,1.6-10.2c1.1-3,2.5-5.5,4.4-7.5c1.9-2,4.2-3.6,6.8-4.6c2.6-1.1,5.5-1.6,8.6-1.6c3.1,0,6,0.5,8.6,1.5
			c2.6,1,4.9,2.6,6.7,4.6c1.9,2,3.3,4.5,4.4,7.5C897.3,337.9,897.8,341.3,897.8,345.2z M884.6,345.3c0-4.2-0.7-7.3-2.1-9.5
			c-1.4-2.2-3.4-3.2-6-3.2c-2.6,0-4.6,1.1-6,3.2c-1.4,2.1-2.1,5.3-2.1,9.4c0,4.2,0.7,7.3,2.1,9.5c1.4,2.2,3.4,3.2,6,3.2
			c2.6,0,4.6-1.1,6-3.2C883.9,352.6,884.6,349.5,884.6,345.3z"/>
		<path class="st1" d="M953.2,363.8c-3.5,3.5-8.6,5.2-15.4,5.2c-3.2,0-6.1-0.5-8.7-1.6c-2.6-1.1-4.9-2.6-6.7-4.6
			c-1.9-2-3.3-4.5-4.4-7.5c-1-2.9-1.5-6.3-1.5-10.1c0-3.4,0.5-6.6,1.4-9.5c0.9-2.9,2.3-5.4,4.1-7.5c1.8-2.1,4.1-3.8,6.7-5
			c2.7-1.2,5.7-1.8,9.3-1.8c2.9,0,5.4,0.3,7.5,0.8c2.1,0.5,3.8,1.3,5.3,2.4c1.5,1.1,2.7,2.4,3.8,4.1c1,1.6,2,3.5,2.8,5.7l-11.6,4.6
			c-0.7-2-1.7-3.5-2.8-4.7s-2.8-1.7-5-1.7c-1.5,0-2.8,0.3-3.8,1c-1,0.6-1.9,1.5-2.5,2.6c-0.6,1.1-1.1,2.5-1.4,4
			c-0.3,1.5-0.4,3.2-0.4,5.1c0,4.6,0.7,7.9,2.2,10c1.5,2,3.7,3,6.7,3c1.4,0,2.5-0.1,3.4-0.4c0.9-0.3,1.7-0.7,2.3-1.2
			c0.6-0.5,1-1.1,1.4-1.8c0.3-0.7,0.5-1.4,0.7-2.2h-8.4V343h20.3v5.6C958.5,355.2,956.7,360.3,953.2,363.8z"/>
		<path class="st1" d="M979.5,368.3v-46.2h13.1v46.2H979.5z"/>
		<path class="st1" d="M1052.2,354.1c0,2.6-0.5,4.9-1.4,6.8c-0.9,1.9-2.3,3.4-4,4.6c-1.7,1.2-3.7,2.1-6,2.6
			c-2.3,0.6-4.9,0.9-7.7,0.9c-3.7,0-7.3-0.5-10.7-1.6c-3.4-1.1-6.3-2.4-8.7-4l6.2-10c0.8,0.6,1.8,1.1,2.9,1.7c1.1,0.5,2.3,1,3.5,1.5
			c1.2,0.4,2.4,0.8,3.7,1.1c1.2,0.3,2.4,0.4,3.4,0.4c2.3,0,3.9-0.2,4.7-0.7c0.9-0.4,1.3-1.2,1.3-2.3c0-0.4-0.1-0.8-0.4-1.2
			c-0.2-0.4-0.7-0.7-1.3-1c-0.6-0.3-1.4-0.7-2.4-1c-1-0.3-2.3-0.7-3.8-1c-2.8-0.7-5.2-1.4-7.3-2.1c-2.1-0.7-3.8-1.7-5.1-2.8
			c-1.4-1.1-2.4-2.5-3.1-4.1c-0.7-1.6-1-3.5-1-5.9c0-2.2,0.4-4.1,1.3-5.9c0.9-1.8,2.1-3.3,3.7-4.6c1.6-1.3,3.5-2.3,5.7-3
			c2.2-0.7,4.8-1.1,7.5-1.1c4,0,7.4,0.5,10.3,1.4c2.9,0.9,5.6,2.2,8.1,4l-6.2,10c-2.1-1.4-4.1-2.5-6.2-3.2c-2.1-0.7-4.3-1.1-6.7-1.1
			c-1.9,0-3.2,0.3-3.8,0.8c-0.6,0.5-0.9,1.2-0.9,2c0,0.4,0.1,0.8,0.4,1.2c0.2,0.3,0.6,0.6,1.2,0.9c0.6,0.3,1.3,0.6,2.3,0.9
			c1,0.3,2.2,0.6,3.7,1c2.9,0.7,5.4,1.5,7.5,2.3c2.1,0.8,3.8,1.8,5.2,3c1.4,1.1,2.4,2.5,3,4.1C1051.9,350.1,1052.2,352,1052.2,354.1
			z"/>
		<path class="st1" d="M1095.6,333.3v35h-12.8v-35h-12.9v-11.1h38.6v11.1H1095.6z"/>
		<path class="st1" d="M1129.5,368.3v-46.2h13.1v46.2H1129.5z"/>
		<path class="st1" d="M1201,361.5c-1.1,1.4-2.3,2.7-3.9,3.8c-1.5,1.1-3.3,2-5.4,2.7c-2.1,0.7-4.5,1-7.2,1c-3.4,0-6.5-0.6-9.1-1.8
			c-2.6-1.2-4.8-2.9-6.6-5c-1.8-2.1-3.1-4.6-4-7.5c-0.9-2.9-1.4-6.1-1.4-9.5c0-3.7,0.5-7,1.6-10c1-2.9,2.5-5.4,4.4-7.5
			c1.9-2,4.1-3.6,6.7-4.7c2.6-1.1,5.4-1.6,8.5-1.6c2.8,0,5.2,0.3,7.3,0.9c2,0.6,3.8,1.5,5.3,2.6c1.5,1.2,2.7,2.6,3.7,4.3
			c1,1.7,1.9,3.6,2.7,5.8l-11.6,4.6c-0.4-1.1-0.8-2-1.3-2.9c-0.4-0.9-0.9-1.6-1.5-2.2c-0.6-0.6-1.2-1.1-2-1.4
			c-0.7-0.3-1.6-0.5-2.7-0.5c-1.3,0-2.5,0.3-3.4,1c-1,0.6-1.8,1.5-2.4,2.6c-0.6,1.1-1.1,2.5-1.4,4c-0.3,1.5-0.4,3.2-0.4,5.1
			c0,1.8,0.1,3.4,0.4,4.9c0.3,1.5,0.7,2.9,1.4,4c0.6,1.1,1.4,2,2.4,2.7c1,0.7,2.2,1,3.6,1c1,0,1.9-0.1,2.6-0.4
			c0.7-0.3,1.4-0.7,2-1.2c0.6-0.5,1.2-1.2,1.8-2c0.6-0.8,1.2-1.8,1.8-2.9l10.8,5.7C1202.9,358.6,1202,360.1,1201,361.5z"/>
		<path class="st1" d="M1259.6,354.1c0,2.6-0.5,4.9-1.4,6.8c-0.9,1.9-2.3,3.4-4,4.6c-1.7,1.2-3.7,2.1-6,2.6
			c-2.3,0.6-4.9,0.9-7.7,0.9c-3.7,0-7.3-0.5-10.7-1.6c-3.4-1.1-6.3-2.4-8.7-4l6.2-10c0.8,0.6,1.8,1.1,2.9,1.7c1.1,0.5,2.3,1,3.5,1.5
			c1.2,0.4,2.4,0.8,3.7,1.1c1.2,0.3,2.4,0.4,3.4,0.4c2.3,0,3.9-0.2,4.7-0.7c0.9-0.4,1.3-1.2,1.3-2.3c0-0.4-0.1-0.8-0.4-1.2
			c-0.2-0.4-0.7-0.7-1.3-1c-0.6-0.3-1.4-0.7-2.4-1c-1-0.3-2.3-0.7-3.8-1c-2.8-0.7-5.2-1.4-7.3-2.1c-2.1-0.7-3.8-1.7-5.1-2.8
			c-1.4-1.1-2.4-2.5-3.1-4.1c-0.7-1.6-1-3.5-1-5.9c0-2.2,0.4-4.1,1.3-5.9c0.9-1.8,2.1-3.3,3.7-4.6c1.6-1.3,3.5-2.3,5.7-3
			c2.2-0.7,4.8-1.1,7.5-1.1c4,0,7.4,0.5,10.3,1.4c2.9,0.9,5.6,2.2,8.1,4l-6.2,10c-2.1-1.4-4.1-2.5-6.2-3.2c-2.1-0.7-4.3-1.1-6.7-1.1
			c-1.9,0-3.2,0.3-3.8,0.8c-0.6,0.5-0.9,1.2-0.9,2c0,0.4,0.1,0.8,0.4,1.2c0.2,0.3,0.6,0.6,1.2,0.9c0.6,0.3,1.3,0.6,2.3,0.9
			c1,0.3,2.2,0.6,3.7,1c2.9,0.7,5.4,1.5,7.5,2.3c2.1,0.8,3.8,1.8,5.2,3c1.4,1.1,2.4,2.5,3,4.1C1259.3,350.1,1259.6,352,1259.6,354.1
			z"/>
	</g>
</g>
<g>
	<path class="st2" d="M276.4,209l-157.5,97L280,228.1l2.7,12.3l-89.2,48.7l93.8-41l3.6,9.1L147.1,341l150.2-68.3l7.3,13.7
		c0,0-226.7,115.6-225.8,113.8c0.9-1.8,233.1-96.5,233.1-96.5l4.6,12.7l-67.4,40.1l72.8-26.4"/>
	<path class="st0" d="M330.5,363.7l-64.5,38.5l62.2-19.4l7.4,7.3c0,0-190.9,100.1-192.6,99.7c-1.7-0.4,200-85.3,200-85.3l4.9,12.4
		l-128.2,60.9l134.8-48.1l4,7.4l-78.9,38.9l81.5-31.6l6.6,8.6l-140.5,62.8l151-49.8"/>
	<path class="st1" d="M178.2,414.3c0,0,25.1-34.7,113.6-54.5C291.8,359.8,240.9,404.7,178.2,414.3z"/>
	<path class="st1" d="M649.7,65.1c-4.4-10.5-14.5-16.9-25.2-16.9c-3.5,0-7,0.7-10.4,2.1l-82.7,34.2c-2.9,0-14.3-1.4-34.2-4.3
		c-22.1-3.2-36.4-4.1-42.7-2.7c-7.5,1.8-10.2,5.8-8.2,11.9c0.5,1.7,1.9,3.1,4.2,4.2c2.2,1.1,4.5,2.1,7,2.8c2.4,0.8,4.1,2.5,5,5.3
		c0.4,1.3,0.2,5.2-0.6,11.7l-31.2,12.9c-2.8,14.1-6,29.9-9.5,47.5c2.1-0.9,4.8-2,8.2-3.4c3.3-1.9,7.1-3.8,11.3-5.5l213.8-88.6
		L649.7,65.1z"/>
	<path class="st2" d="M682.5,144.2C682.5,144.2,682.5,144.3,682.5,144.2l-21.2-51.7l-165.4,68.5c-21.5,9.7-44.6,20.7-69.3,33.2
		c-10.6,8.8-18.5,37.5-23.8,86.2c-4.7,43-5.8,74.1-3.3,93.1c1.4,8.2,3.2,14.8,5.3,19.8c4.3,10.4,10,14.2,17.1,11.2
		c5-2.1,9.2-6.2,12.4-12.5c11.6-22.9,22.1-54.2,31.6-93.8c1.1-4.9,1.1-9.8,1.7-13.1c-0.5-1.1-0.5-2.6-0.1-4.3
		c3.9-14.3,7.4-28.8,10.7-43.3c5.6-19.5,10.8-31.1,15.6-35.1c2.6-2,4.9-3.5,7-4.4c4.2-1.7,9.6-0.8,16.2,2.8
		c6.6,3.6,12.5,4.4,17.5,2.3c-9.9,25.2-16.6,52.3-20.1,81.4c-3.5,29.1-2.5,50.1,2.9,63c4.8,11.7,11.8,15.7,21,11.9
		c5.8-2.4,10.8-7.4,15-15c7.1-12.2,14.2-35.8,21.1-70.9c4.5-18.4,10.9-46.2,18.9-83.1c4-18.7,7.4-29.5,10.3-32.4
		c2.9-2.9,5.4-4.8,7.5-5.7c3.7-1.5,9-0.4,15.7,3.4c6.7,3.8,12.5,4.7,17.5,2.6c-10,25.1-16.7,52.1-20.2,81.1
		c-3.5,29-2.6,49.9,2.8,62.8c4.8,11.6,11.8,15.6,21,11.8c5.8-2.4,10.8-7.4,15-15c10.3-17.5,18.8-64,25.7-139.5L682.5,144.2z"/>
	<path class="st0" d="M748,302.3l-45.2-109.2c-0.2,2.3-0.4,4.5-0.6,6.8c-5.9,76.8-22.2,120.8-48.9,131.8
		c-27.6,11.4-48,1.1-61.3-31.1c-1.6-3.8-3.2-7.7-4.9-11.9c-4.4,23.4-9.9,42.8-16.4,58.2c-6.5,15.4-15.6,25.5-27.2,30.4
		c-27.4,11.4-47.8,1-61.1-31.2c-4.4-10.6-7.3-21.4-8.7-32.3c-3.5,18.9-10.5,46-21.1,81.2c-6.4,15.4-16,25.7-29,31.1
		c-6.2,2.6-11.9,3.7-17.3,3.6c-14.7-0.4-26.5-11-35.4-31.6c-6.7-15.2-9.7-40.3-9-75.4c0.1-5.1,0.3-10.3,0.6-15.8
		c1.4-34.4,4.9-66.1,10.4-95.3l-26.3,10.9c-6.3,2.6-10.3,1.7-12.1-2.6c-2.3-5.7-0.8-9.6,4.6-11.9c2.1-0.9,8-3.3,17.9-7.4
		c9.8-4.1,16.2-6.7,19.1-7.9c1.7-6.5,3.6-20.2,5.8-41c0.2-1.8,0.4-3.5,0.5-5.2L350,159.7l-61.5,25.5c-6.7,2.8-12,8.1-14.8,14.8
		c-2.8,6.7-2.8,14.2,0,20.9l46,111.1l11,38.7l11.6,23.4l21.1,46.2l8.6,17.8l1.2,1.1c-0.2,0-0.5,0-0.7,0c2.9,6.1,7.9,10.9,14.2,13.5
		c3.3,1.4,6.9,2.1,10.5,2.1c3.6,0,7.1-0.7,10.5-2.1l36.6-15.2c5.2,4.1,8.2,6.9,8.8,8.2c1.6,3.2,1.7,6.1,0.2,8.8
		c-1.4,2.7-2.6,5.5-3.6,8.4c-1,2.9-1,5.2,0,7.2c3.5,7,9.2,8.1,17.2,3.3c6.7-4.2,18.2-17.1,34.5-38.8c11.7-15.6,19.5-25.7,23.5-30.4
		L733.2,338c6.7-2.8,12-8.1,14.8-14.8C750.8,316.5,750.8,309,748,302.3z"/>
</g>
</svg>
