<?xml version="1.0" encoding="utf-8"?>
<!-- Generator: Adobe Illustrator 23.0.2, SVG Export Plug-In . SVG Version: 6.00 Build 0)  -->
<svg version="1.1" id="Layer_1" xmlns="http://www.w3.org/2000/svg" xmlns:xlink="http://www.w3.org/1999/xlink" x="0px" y="0px"
	 viewBox="0 0 48.8 49" style="enable-background:new 0 0 48.8 49;" xml:space="preserve">
<style type="text/css">
	.st0{fill:#3FAF5C;}
	.st1{fill:#FFFFFF;}
	.st2{fill:#FCD206;}
</style>
<g>
	<path class="st0" d="M14.7,19.4L3.6,26.2L15,20.7l0.2,0.9L8.9,25l6.6-2.9l0.3,0.6L5.6,28.6l10.6-4.8l0.5,1c0,0-15.9,8.1-15.9,8
		C0.9,32.7,17.2,26,17.2,26l0.3,0.9l-4.7,2.8l5.1-1.9"/>
	<path class="st1" d="M18.5,30.2L14,32.9l4.4-1.4l0.5,0.5c0,0-13.4,7-13.5,7c-0.1,0,14-6,14-6l0.3,0.9l-9,4.3l9.5-3.4l0.3,0.5
		l-5.5,2.7l5.7-2.2l0.5,0.6l-9.9,4.4l10.6-3.5"/>
	<path class="st2" d="M7.8,33.8c0,0,1.8-2.4,8-3.8C15.8,30,12.2,33.1,7.8,33.8z"/>
	<path class="st2" d="M40.9,9.3c-0.3-0.7-1-1.2-1.8-1.2c-0.2,0-0.5,0-0.7,0.1l-5.8,2.4c-0.2,0-1-0.1-2.4-0.3c-1.6-0.2-2.6-0.3-3-0.2
		c-0.5,0.1-0.7,0.4-0.6,0.8c0,0.1,0.1,0.2,0.3,0.3c0.2,0.1,0.3,0.1,0.5,0.2c0.2,0.1,0.3,0.2,0.3,0.4c0,0.1,0,0.4,0,0.8l-2.2,0.9
		c-0.2,1-0.4,2.1-0.7,3.3c0.1-0.1,0.3-0.1,0.6-0.2c0.2-0.1,0.5-0.3,0.8-0.4l15-6.2L40.9,9.3z"/>
	<path class="st0" d="M43.2,14.8C43.2,14.8,43.2,14.8,43.2,14.8l-1.5-3.6L30.1,16c-1.5,0.7-3.1,1.5-4.9,2.3C24.5,19,24,21,23.6,24.4
		c-0.3,3-0.4,5.2-0.2,6.5c0.1,0.6,0.2,1,0.4,1.4c0.3,0.7,0.7,1,1.2,0.8c0.4-0.1,0.6-0.4,0.9-0.9c0.8-1.6,1.6-3.8,2.2-6.6
		c0.1-0.3,0.1-0.7,0.1-0.9c0-0.1,0-0.2,0-0.3c0.3-1,0.5-2,0.8-3c0.4-1.4,0.8-2.2,1.1-2.5c0.2-0.1,0.3-0.2,0.5-0.3
		c0.3-0.1,0.7-0.1,1.1,0.2c0.5,0.3,0.9,0.3,1.2,0.2c-0.7,1.8-1.2,3.7-1.4,5.7c-0.2,2-0.2,3.5,0.2,4.4c0.3,0.8,0.8,1.1,1.5,0.8
		c0.4-0.2,0.8-0.5,1.1-1.1c0.5-0.9,1-2.5,1.5-5c0.3-1.3,0.8-3.2,1.3-5.8c0.3-1.3,0.5-2.1,0.7-2.3c0.2-0.2,0.4-0.3,0.5-0.4
		c0.3-0.1,0.6,0,1.1,0.2c0.5,0.3,0.9,0.3,1.2,0.2c-0.7,1.8-1.2,3.7-1.4,5.7c-0.2,2-0.2,3.5,0.2,4.4c0.3,0.8,0.8,1.1,1.5,0.8
		c0.4-0.2,0.8-0.5,1.1-1.1c0.7-1.2,1.3-4.5,1.8-9.8L43.2,14.8z"/>
	<path class="st1" d="M47.8,25.9l-3.2-7.7c0,0.2,0,0.3,0,0.5c-0.4,5.4-1.6,8.5-3.4,9.3c-1.9,0.8-3.4,0.1-4.3-2.2
		c-0.1-0.3-0.2-0.5-0.3-0.8c-0.3,1.6-0.7,3-1.2,4.1c-0.5,1.1-1.1,1.8-1.9,2.1c-1.9,0.8-3.4,0.1-4.3-2.2c-0.3-0.7-0.5-1.5-0.6-2.3
		c-0.2,1.3-0.7,3.2-1.5,5.7c-0.4,1.1-1.1,1.8-2,2.2c-0.4,0.2-0.8,0.3-1.2,0.3c-1,0-1.9-0.8-2.5-2.2c-0.5-1.1-0.7-2.8-0.6-5.3
		c0-0.4,0-0.7,0-1.1c0.1-2.4,0.3-4.6,0.7-6.7l-1.8,0.8c-0.4,0.2-0.7,0.1-0.9-0.2c-0.2-0.4-0.1-0.7,0.3-0.8c0.1-0.1,0.6-0.2,1.3-0.5
		c0.7-0.3,1.1-0.5,1.3-0.6c0.1-0.5,0.3-1.4,0.4-2.9c0-0.1,0-0.2,0-0.4l-2.3,0.9l-4.3,1.8c-0.5,0.2-0.8,0.6-1,1c-0.2,0.5-0.2,1,0,1.5
		l3.2,7.8l0.8,2.7l0.8,1.6l1.5,3.2l0.6,1.3l0.1,0.1c0,0,0,0-0.1,0c0.2,0.4,0.6,0.8,1,1c0.2,0.1,0.5,0.1,0.7,0.1c0.2,0,0.5,0,0.7-0.1
		l2.6-1.1c0.4,0.3,0.6,0.5,0.6,0.6c0.1,0.2,0.1,0.4,0,0.6c-0.1,0.2-0.2,0.4-0.3,0.6c-0.1,0.2-0.1,0.4,0,0.5c0.2,0.5,0.6,0.6,1.2,0.2
		c0.5-0.3,1.3-1.2,2.4-2.7c0.8-1.1,1.4-1.8,1.7-2.1l14.6-6.1c0.5-0.2,0.8-0.6,1-1C48,26.9,48,26.4,47.8,25.9z"/>
</g>
</svg>
