<svg width="210" height="48" viewBox="0 0 210 48" fill="#FFFFFF" xmlns="http://www.w3.org/2000/svg">
<path d="M36.9133 26.523C38.718 25.826 40.3989 24.8494 41.2022 24.0449C42.2943 22.9512 42.7098 21.7943 43.3482 20.372C43.3306 19.5754 43.7124 18.8064 44.379 18.3533C44.3988 18.3197 44.419 18.286 44.4393 18.2521C44.4393 18.2521 44.4348 18.2762 44.4278 18.321C44.5335 18.2529 44.6461 18.1927 44.7651 18.1413C45.9474 17.631 47.3127 18.1919 47.8145 19.3942C48.3164 20.5964 47.7648 21.9847 46.5825 22.495C46.1468 22.6831 45.6862 22.7257 45.2531 22.6443C42.193 22.8924 43.7254 23.0165 40.3221 26.2599C38.1832 28.2982 38.0236 30.6931 37.8696 32.4873C38.1852 35.1107 36.7804 37.7363 34.2685 38.8205C31.2283 40.1328 27.7176 38.6904 26.4271 35.599C25.8752 34.2767 25.8188 32.8669 26.1729 31.5837C26.0941 30.1393 26.6596 27.8132 25.8141 25.8789C24.8535 23.681 23.9205 21.311 22.2593 18.9462C21.374 17.6858 19.9224 16.2814 17.9045 14.7331C15.2594 14.1052 13.2892 11.6922 13.2892 8.81115C13.2892 5.45269 15.9666 2.73012 19.2693 2.73012C20.7079 2.73012 22.0279 3.24669 23.0596 4.10738C25.6573 4.91108 29.6348 4.72709 31.3293 4.0461C32.7548 3.47318 33.5819 2.57339 34.716 1.51778C35.0059 0.777579 35.6528 0.221356 36.4405 0.0691067C36.4717 0.0461028 36.5032 0.0230668 36.535 0C36.535 0 36.5216 0.02031 36.4979 0.0587807C36.6214 0.0381635 36.7482 0.0274414 36.8774 0.0274414C38.1618 0.0274414 39.203 1.08622 39.203 2.39229C39.203 3.69835 38.1618 4.75713 36.8774 4.75713C36.4041 4.75713 35.9638 4.61333 35.5964 4.36633C32.6842 3.37891 34.0471 4.102 29.6681 5.73528C28.3102 6.24177 27.3624 7.01961 26.6509 7.86877C24.3829 11.4956 23.5836 14.2872 24.2527 16.2435C25.2939 19.2873 27.2428 21.9867 28.9039 24.3516C30.4297 26.5237 33.357 26.9857 36.9133 26.523ZM4.23108 20.709C1.78168 19.9484 0 17.6318 0 14.8922C0 11.5337 2.67739 8.81115 5.98012 8.81115C9.28286 8.81115 11.9602 11.5337 11.9602 14.8922C11.9602 16.1751 11.5696 17.3652 10.9026 18.3463C10.7613 19.622 11.0031 21.1733 11.628 23.0002C12.6692 26.044 14.6181 28.7434 16.2792 31.1083C17.9404 33.4731 18.6959 34.7944 21.2627 35.9263C21.2627 35.9263 21.24 35.9428 21.197 35.9739C23.8931 36.5634 25.9139 39.0012 25.9139 41.919C25.9139 45.2774 23.2365 48 19.9337 48C16.631 48 13.9536 45.2774 13.9536 41.919C13.9536 40.9868 14.1599 40.1035 14.5286 39.3139C15.0511 36.7136 14.0511 34.6071 13.1894 32.6356C12.2288 30.4377 11.2958 28.0677 9.63464 25.7029C8.60272 24.2338 6.80153 22.5692 4.23108 20.709Z"/>
<path d="M62.9136 19.66L55.0536 6.58001H60.3336L65.3436 15.04L70.3236 6.58001H75.5736L67.6236 19.78V28H62.9136V19.66ZM81.1536 17.38C81.1536 18.28 81.2586 19.155 81.4686 20.005C81.6786 20.855 82.0136 21.62 82.4736 22.3C82.9336 22.98 83.5336 23.525 84.2736 23.935C85.0136 24.345 85.9136 24.55 86.9736 24.55C88.0336 24.55 88.9336 24.345 89.6736 23.935C90.4136 23.525 91.0136 22.98 91.4736 22.3C91.9336 21.62 92.2686 20.855 92.4786 20.005C92.6886 19.155 92.7936 18.28 92.7936 17.38C92.7936 16.44 92.6886 15.53 92.4786 14.65C92.2686 13.77 91.9336 12.985 91.4736 12.295C91.0136 11.605 90.4136 11.055 89.6736 10.645C88.9336 10.235 88.0336 10.03 86.9736 10.03C85.9136 10.03 85.0136 10.235 84.2736 10.645C83.5336 11.055 82.9336 11.605 82.4736 12.295C82.0136 12.985 81.6786 13.77 81.4686 14.65C81.2586 15.53 81.1536 16.44 81.1536 17.38ZM76.4436 17.38C76.4436 15.78 76.6836 14.295 77.1636 12.925C77.6436 11.555 78.3336 10.36 79.2336 9.34001C80.1336 8.32 81.2386 7.52001 82.5486 6.94001C83.8586 6.36 85.3336 6.07001 86.9736 6.07001C88.6336 6.07001 90.1136 6.36 91.4136 6.94001C92.7136 7.52001 93.8136 8.32 94.7136 9.34001C95.6136 10.36 96.3036 11.555 96.7836 12.925C97.2636 14.295 97.5036 15.78 97.5036 17.38C97.5036 18.94 97.2636 20.395 96.7836 21.745C96.3036 23.095 95.6136 24.27 94.7136 25.27C93.8136 26.27 92.7136 27.055 91.4136 27.625C90.1136 28.195 88.6336 28.48 86.9736 28.48C85.3336 28.48 83.8586 28.195 82.5486 27.625C81.2386 27.055 80.1336 26.27 79.2336 25.27C78.3336 24.27 77.6436 23.095 77.1636 21.745C76.6836 20.395 76.4436 18.94 76.4436 17.38ZM118.894 19.9C118.894 22.8 118.084 24.955 116.464 26.365C114.844 27.775 112.604 28.48 109.744 28.48C106.844 28.48 104.599 27.78 103.009 26.38C101.419 24.98 100.624 22.82 100.624 19.9V6.58001H105.334V19.9C105.334 20.48 105.384 21.05 105.484 21.61C105.584 22.17 105.794 22.665 106.114 23.095C106.434 23.525 106.879 23.875 107.449 24.145C108.019 24.415 108.784 24.55 109.744 24.55C111.424 24.55 112.584 24.175 113.224 23.425C113.864 22.675 114.184 21.5 114.184 19.9V6.58001H118.894V19.9Z"/>
<path d="M126.898 26.86H126.958L134.368 6.58002H135.688L127.678 28H126.148L118.168 6.58002H119.548L126.898 26.86ZM137.158 6.58002H151.558V7.72002H138.478V16.3H150.778V17.44H138.478V26.86H151.708V28H137.158V6.58002ZM153.958 6.58002H162.898C163.838 6.58002 164.718 6.67502 165.538 6.86502C166.358 7.05502 167.078 7.36502 167.698 7.79502C168.318 8.22502 168.803 8.79002 169.153 9.49002C169.503 10.19 169.678 11.06 169.678 12.1C169.678 13.54 169.273 14.755 168.463 15.745C167.653 16.735 166.528 17.35 165.088 17.59V17.65C166.068 17.77 166.843 18.03 167.413 18.43C167.983 18.83 168.408 19.32 168.688 19.9C168.968 20.48 169.148 21.12 169.228 21.82C169.308 22.52 169.348 23.22 169.348 23.92V25.15C169.348 25.55 169.368 25.925 169.408 26.275C169.448 26.625 169.513 26.95 169.603 27.25C169.693 27.55 169.818 27.8 169.978 28H168.508C168.228 27.5 168.073 26.915 168.043 26.245C168.013 25.575 167.998 24.88 167.998 24.16C167.998 23.44 167.968 22.725 167.908 22.015C167.848 21.305 167.658 20.67 167.338 20.11C167.018 19.55 166.513 19.1 165.823 18.76C165.133 18.42 164.158 18.25 162.898 18.25H155.278V28H153.958V6.58002ZM162.898 17.11C163.678 17.11 164.403 17.015 165.073 16.825C165.743 16.635 166.318 16.34 166.798 15.94C167.278 15.54 167.658 15.03 167.938 14.41C168.218 13.79 168.358 13.05 168.358 12.19C168.358 11.39 168.208 10.705 167.908 10.135C167.608 9.56502 167.208 9.10002 166.708 8.74002C166.208 8.38002 165.628 8.12002 164.968 7.96002C164.308 7.80002 163.618 7.72002 162.898 7.72002H155.278V17.11H162.898ZM172.858 6.58002H174.178V28H172.858V6.58002ZM177.958 6.58002H191.398V7.72002H179.278V16.3H190.198V17.44H179.278V28H177.958V6.58002ZM207.868 6.58002H209.338L200.728 19.03V28H199.408V19.03L190.858 6.58002H192.358L200.098 17.92L207.868 6.58002Z"/>
</svg>
